<!DOCTYPE svg PUBLIC "-//W3C//DTD SVG 1.1//EN" "http://www.w3.org/Graphics/SVG/1.1/DTD/svg11.dtd" [
	<!ENTITY ns_flows "http://ns.adobe.com/Flows/1.0/">
]><svg xmlns="http://www.w3.org/2000/svg" width="205" height="172" viewBox="-0.664 -0.581 205 172" overflow="visible" enable-background="new -0.664 -0.581 205 172"><polygon fill="#FF4040" points="136.219,148.48 113.516,170.539 90.812,148.48 90.812,110.24 136.219,110.24"/><polygon fill="#c33" points="113.516,170.539 136.219,148.48 136.219,110.24 113.516,110.24"/><polygon fill="#FF4040" points="90.812,110.24 0,0 45.406,0 136.219,110.24"/><polygon fill="#FF4040" points="136.219,110.24 204.329,27.56 158.922,27.56 90.812,110.24"/><polygon fill="#FF4040" points="90.812,55.12 136.219,0 90.812,0 45.406,55.12"/><polygon fill="#c33" points="181.625,27.56 181.625,55.12 136.219,110.24 113.516,110.24"/><polygon fill="#c33" points="113.516,0 113.516,27.561 90.812,55.12 68.109,55.12"/><polygon fill="#c33" points="45.407,0 45.407,27.561 45.407,27.56 22.704,27.56"/></svg>